<svg width="40" height="40" viewBox="0 0 40 40" fill="none" xmlns="http://www.w3.org/2000/svg">
<path d="M20.5185 39.4558L6.46526 35.5116L3.3335 0H37.7455L34.6105 35.5062L20.5185 39.4558Z" fill="#264DE4"/>
<path d="M31.9266 33.245L34.6056 2.90332H20.5396V36.4366L31.9266 33.245Z" fill="#2965F1"/>
<path d="M10.5122 16.0741L10.8983 20.4295H20.5388V16.0741H10.5122ZM9.73633 7.25879L10.1279 11.6141H20.5388V7.25879H9.73633ZM20.5388 27.3854L20.5199 27.3905L15.7221 26.0808L15.4154 22.6072H11.0908L11.6943 29.4458L20.519 31.9223L20.5388 31.9169V27.3854Z" fill="#EBEBEB"/>
<path d="M30.538 16.0741L31.3156 7.25879H20.5241V11.6141H26.5944L26.2024 16.0741H20.5241V20.4295H25.8289L25.3287 26.078L20.5239 27.3891V31.9203L29.3556 29.4458L29.4204 28.7099L30.4329 17.2436L30.538 16.0741Z" fill="white"/>
</svg>
