<svg width="40" height="40" viewBox="0 0 40 40" fill="none" xmlns="http://www.w3.org/2000/svg">
<rect width="40" height="40" rx="10" fill="white"/>
<path d="M11.333 29.0263C11.333 26.5934 13.3072 24.6211 15.7424 24.6211H20.1517V29.0263C20.1517 31.4592 18.1775 33.4315 15.7424 33.4315C13.3072 33.4315 11.333 31.4592 11.333 29.0263Z" fill="#24CB71"/>
<path d="M20.1533 7V15.8104H24.5627C26.9979 15.8104 28.972 13.8381 28.972 11.4052C28.972 8.9723 26.9979 7 24.5627 7H20.1533Z" fill="#FF7237"/>
<path d="M24.5251 24.621C26.9603 24.621 28.9344 22.6487 28.9344 20.2158C28.9344 17.7828 26.9603 15.8105 24.5251 15.8105C22.0899 15.8105 20.1157 17.7828 20.1157 20.2158C20.1157 22.6487 22.0899 24.621 24.5251 24.621Z" fill="#00B6FF"/>
<path d="M11.333 11.4052C11.333 13.8381 13.3072 15.8104 15.7424 15.8104H20.1517V7H15.7424C13.3072 7 11.333 8.9723 11.333 11.4052Z" fill="#FF3737"/>
<path d="M11.333 20.2158C11.333 22.6487 13.3072 24.621 15.7424 24.621H20.1517V15.8105H15.7424C13.3072 15.8105 11.333 17.7828 11.333 20.2158Z" fill="#874FFF"/>
</svg>
