<svg width="40" height="40" viewBox="0 0 40 40" fill="none" xmlns="http://www.w3.org/2000/svg">
<rect width="40" height="40" rx="10" fill="white"/>
<path d="M20 6C18.0302 6 16.0796 6.38437 14.2597 7.13115C12.4399 7.87793 10.7863 8.97251 9.3934 10.3524C6.58035 13.1392 5 16.9189 5 20.86C5 27.4281 9.305 33.0006 15.26 34.977C16.01 35.0959 16.25 34.6352 16.25 34.234V31.7226C12.095 32.6142 11.21 29.7314 11.21 29.7314C10.52 28.0076 9.545 27.547 9.545 27.547C8.18 26.6257 9.65 26.6554 9.65 26.6554C11.15 26.7594 11.945 28.186 11.945 28.186C13.25 30.4447 15.455 29.776 16.31 29.4193C16.445 28.4534 16.835 27.7996 17.255 27.4281C13.925 27.0566 10.43 25.7786 10.43 20.117C10.43 18.4675 11 17.145 11.975 16.0899C11.825 15.7184 11.3 14.173 12.125 12.1669C12.125 12.1669 13.385 11.7657 16.25 13.6826C17.435 13.3557 18.725 13.1922 20 13.1922C21.275 13.1922 22.565 13.3557 23.75 13.6826C26.615 11.7657 27.875 12.1669 27.875 12.1669C28.7 14.173 28.175 15.7184 28.025 16.0899C29 17.145 29.57 18.4675 29.57 20.117C29.57 25.7935 26.06 27.0417 22.715 27.4132C23.255 27.8739 23.75 28.7804 23.75 30.1623V34.234C23.75 34.6352 23.99 35.1107 24.755 34.977C30.71 32.9857 35 27.4281 35 20.86C35 18.9085 34.612 16.9762 33.8582 15.1733C33.1044 13.3704 31.9995 11.7323 30.6066 10.3524C29.2137 8.97251 27.5601 7.87793 25.7403 7.13115C23.9204 6.38437 21.9698 6 20 6Z" fill="black"/>
</svg>
