<svg width="40" height="40" viewBox="0 0 40 40" fill="none" xmlns="http://www.w3.org/2000/svg">
<path d="M5.94883 35.5867L2.82227 0.519531H37.1773L34.0473 35.5814L19.9788 39.4814L5.94883 35.5867Z" fill="#E44D26"/>
<path d="M20 36.5005L31.3681 33.3486L34.0428 3.38672H20V36.5005Z" fill="#F16529"/>
<path d="M20 16.3925H14.3088L13.9156 11.9881H20V7.6875H9.21533L9.31846 8.84125L10.3753 20.6934H20V16.3925ZM20 27.5622L19.981 27.5675L15.1913 26.2738L14.8853 22.8441H10.5675L11.17 29.5969L19.9803 32.0425L20 32.0372V27.5622Z" fill="#EBEBEB"/>
<path d="M19.9854 16.3925V20.6934H25.2813L24.7822 26.2712L19.9854 27.5659V32.0406L28.8025 29.5969L28.8672 28.8703L29.8779 17.5475L29.9825 16.3925H28.8238H19.9854ZM19.9854 7.6875V11.9881H30.3741L30.4604 11.0219L30.6566 8.84125L30.7594 7.6875H19.9854Z" fill="white"/>
</svg>
