<svg xmlns="http://www.w3.org/2000/svg" width="64" height="64" viewBox="0 0 64 64" fill="none">
  <path fill-rule="evenodd" clip-rule="evenodd" d="M8.45883 8.45824C5.3335 11.5809 5.3335 16.6102 5.3335 26.6662V37.3329C5.3335 47.3889 5.3335 52.4182 8.45883 55.5409C11.5842 58.6636 16.6108 58.6662 26.6668 58.6662H37.3335C47.3895 58.6662 52.4188 58.6662 55.5415 55.5409C58.6642 52.4156 58.6668 47.3889 58.6668 37.3329V26.6662C58.6668 19.0929 58.6668 14.3729 57.3335 11.1702V45.3329C56.0657 45.3331 54.8103 45.0836 53.639 44.5986C52.4677 44.1136 51.4034 43.4026 50.5068 42.5062L48.5015 40.5009C46.5762 38.5756 45.6162 37.6156 44.5255 37.2102C43.3265 36.7644 42.0072 36.7644 40.8082 37.2102C39.7175 37.6156 38.7548 38.5756 36.8348 40.5009L36.5308 40.8022C34.9708 42.3622 34.1895 43.1436 33.3602 43.2876C32.716 43.4011 32.0526 43.2739 31.4962 42.9302C30.7815 42.4876 30.3468 41.4716 29.4748 39.4422L29.3335 39.1116C27.3335 34.4449 26.3362 32.1142 24.5922 31.2396C23.7139 30.7993 22.7311 30.6101 21.7522 30.6929C19.8082 30.8582 18.0162 32.6529 14.4268 36.2396L9.3335 41.3329V7.69824C9.02416 7.92758 8.73261 8.18091 8.45883 8.45824Z" fill="white"/>
  <mask id="mask0_109_261" style="mask-type:luminance" maskUnits="userSpaceOnUse" x="5" y="5" width="54" height="54">
    <path d="M5.3335 26.6663C5.3335 16.6103 5.3335 11.581 8.45883 8.45834C11.5842 5.33567 16.6108 5.33301 26.6668 5.33301H37.3335C47.3895 5.33301 52.4188 5.33301 55.5415 8.45834C58.6642 11.5837 58.6668 16.6103 58.6668 26.6663V37.333C58.6668 47.389 58.6668 52.4183 55.5415 55.541C52.4162 58.6637 47.3895 58.6663 37.3335 58.6663H26.6668C16.6108 58.6663 11.5815 58.6663 8.45883 55.541C5.33616 52.4157 5.3335 47.389 5.3335 37.333V26.6663Z" fill="white"/>
  </mask>
  <g mask="url(#mask0_109_261)">
    <path d="M5.3335 26.6663C5.3335 16.6103 5.3335 11.581 8.45883 8.45834C11.5842 5.33567 16.6108 5.33301 26.6668 5.33301H37.3335C47.3895 5.33301 52.4188 5.33301 55.5415 8.45834C58.6642 11.5837 58.6668 16.6103 58.6668 26.6663V37.333C58.6668 47.389 58.6668 52.4183 55.5415 55.541C52.4162 58.6637 47.3895 58.6663 37.3335 58.6663H26.6668C16.6108 58.6663 11.5815 58.6663 8.45883 55.541C5.33616 52.4157 5.3335 47.389 5.3335 37.333V26.6663Z" stroke="white" stroke-width="4"/>
  </g>
  <path d="M40.0003 29.3327C42.9458 29.3327 45.3337 26.9449 45.3337 23.9993C45.3337 21.0538 42.9458 18.666 40.0003 18.666C37.0548 18.666 34.667 21.0538 34.667 23.9993C34.667 26.9449 37.0548 29.3327 40.0003 29.3327Z" fill="white"/>
</svg>