<svg width="40" height="40" viewBox="0 0 40 40" fill="none" xmlns="http://www.w3.org/2000/svg">
<rect width="40" height="40" rx="10" fill="white"/>
<path d="M10.783 8.39092C8.80368 11.2353 9.05002 14.9363 10.5623 17.9592L10.6729 18.174L10.7437 18.3102L10.7879 18.3886L10.8668 18.5296C10.9136 18.6122 10.9617 18.6947 11.0111 18.7771L11.0934 18.9127C11.148 19.0005 11.2038 19.0878 11.2609 19.1747L11.3322 19.2848C11.411 19.4026 11.4919 19.5193 11.5748 19.6351L11.5818 19.644L11.6227 19.6991C11.6947 19.7982 11.7684 19.8963 11.8438 19.9934L11.927 20.0992C11.9941 20.1834 12.0622 20.2672 12.1313 20.3507L12.2094 20.4438C12.3023 20.5531 12.3973 20.6624 12.4939 20.769L12.4996 20.775L12.5106 20.7871C12.6051 20.8902 12.7018 20.9912 12.8001 21.0921L12.8927 21.1855C12.9688 21.2618 13.0458 21.3373 13.1237 21.412L13.2182 21.5019C13.3221 21.6001 13.4276 21.6961 13.5348 21.7899L13.5396 21.7943L13.5948 21.8411C13.6894 21.9231 13.7852 22.0041 13.8823 22.0839L14.0013 22.179C14.0805 22.2423 14.1604 22.3048 14.241 22.3664L14.3694 22.4635C14.4582 22.5289 14.5479 22.5932 14.6383 22.6566L14.7361 22.726L14.7632 22.7454C14.8489 22.8046 14.9369 22.8615 15.0244 22.9183L15.1375 22.9936C15.2721 23.0785 15.4086 23.1627 15.5464 23.244L15.6595 23.3078C15.7609 23.3663 15.8632 23.4237 15.9664 23.4799L16.1363 23.5676L16.356 23.6818L16.4066 23.7063L16.4965 23.7496C16.6114 23.8047 16.7274 23.8585 16.8446 23.9109L16.9181 23.9437C17.0522 24.0024 17.1875 24.0588 17.3241 24.1128L17.4232 24.1516C17.5497 24.2008 17.6774 24.248 17.8063 24.2935L17.8545 24.3102C17.9956 24.3597 18.1383 24.4052 18.2818 24.4501L18.3849 24.4808C18.5308 24.525 18.6754 24.5772 18.8259 24.6052C28.3976 26.3506 31.1779 18.8535 31.1779 18.8535C28.8426 21.8958 24.6979 22.698 20.7707 21.8048C20.6219 21.7711 20.4776 21.7245 20.3324 21.682L20.2231 21.6486C20.0816 21.6054 19.9409 21.5596 19.801 21.5113L19.7431 21.4906C19.6184 21.4464 19.4944 21.4003 19.371 21.3525L19.2666 21.3115C19.1314 21.2582 18.9975 21.2026 18.8649 21.1446L18.7847 21.1088C18.671 21.0577 18.558 21.0052 18.4457 20.9513L18.3477 20.9042C18.2597 20.8614 18.1727 20.8159 18.0855 20.7709L17.9108 20.6791C17.8047 20.6224 17.7 20.5637 17.5966 20.5031L17.4905 20.4441C17.3528 20.3626 17.2164 20.2789 17.0813 20.1932L16.9709 20.1197C16.8729 20.0567 16.7758 19.9922 16.6799 19.9261L16.5859 19.8601C16.4934 19.795 16.4017 19.7288 16.3108 19.6615L16.1888 19.5691C16.1052 19.5054 16.0224 19.4407 15.9406 19.375L15.8299 19.2862C15.7255 19.2007 15.6223 19.1138 15.5206 19.0253L15.4867 18.997C15.3768 18.9001 15.2684 18.8015 15.1614 18.7014L15.0699 18.6131C14.9906 18.5382 14.9127 18.4618 14.8362 18.384L14.7447 18.2925C14.6472 18.1928 14.5516 18.0918 14.4579 17.9893L14.4437 17.974C14.3446 17.8656 14.2477 17.7553 14.1529 17.6431L14.0767 17.5526C14.0058 17.4673 13.9361 17.3811 13.8675 17.2939L13.7908 17.1983C13.7087 17.0922 13.6281 16.985 13.549 16.8766C11.3689 13.9025 10.5854 9.80058 12.3281 6.43205M16.9267 5.99429C15.4955 8.05385 15.5731 10.8115 16.6898 12.9895C16.8768 13.3556 17.0883 13.7086 17.3228 14.0462C17.5371 14.354 17.7751 14.7196 18.0596 14.9665C18.1628 15.0801 18.2707 15.191 18.3808 15.2998L18.4654 15.3835C18.572 15.4874 18.6813 15.589 18.7933 15.6882L18.8067 15.6998L18.81 15.7031C18.9344 15.8121 19.0628 15.9168 19.1931 16.0202L19.28 16.088C19.4109 16.1882 19.5441 16.2867 19.6809 16.3807L19.6925 16.3896L19.8756 16.5099L19.9623 16.5673C20.0599 16.6301 20.159 16.6907 20.2595 16.7493L20.3015 16.774C20.3883 16.8239 20.4758 16.8728 20.564 16.9208L20.6574 16.9692L20.841 17.0645L20.8687 17.0772C20.9946 17.1395 21.1223 17.199 21.2521 17.2557L21.3366 17.2907C21.4406 17.3348 21.5453 17.3773 21.6508 17.418L21.7854 17.4675C21.8813 17.5031 21.9771 17.5357 22.0741 17.568L22.2044 17.6097C22.3419 17.6522 22.4782 17.7064 22.6214 17.7303C30.0116 18.9545 31.7177 13.2644 31.7177 13.2644C30.1799 15.4796 27.2014 16.5363 24.0232 15.7114C23.8828 15.6743 23.7432 15.634 23.6046 15.5905L23.4789 15.5499C23.3807 15.5182 23.2831 15.4847 23.1862 15.4492L23.054 15.3999C22.9483 15.3592 22.8432 15.3167 22.7388 15.2726L22.654 15.2368C22.524 15.1801 22.3955 15.1203 22.2684 15.0575L22.0751 14.9592L21.9637 14.9018C21.8811 14.857 21.7995 14.8108 21.7189 14.7635L21.6605 14.7303C21.5606 14.6721 21.4618 14.6118 21.3644 14.5494L21.275 14.4899L21.0833 14.3629C20.9477 14.2688 20.8145 14.1714 20.6838 14.0707L20.5939 13.9997C19.2028 12.9015 18.1 11.4003 17.5758 9.69828C17.0264 7.93297 17.1448 5.95148 18.0968 4.34314M22.094 4.20368C21.2502 5.44534 21.1673 6.98773 21.7529 8.35915C22.3702 9.81485 23.6353 10.9566 25.112 11.4983L25.2956 11.5616L25.3764 11.5874C25.4633 11.6149 25.5498 11.6467 25.6397 11.6633C29.7203 12.4519 30.8271 9.56959 31.1216 9.14502C30.1522 10.5409 28.5228 10.8761 26.5235 10.3907C26.36 10.3489 26.1986 10.2991 26.04 10.2413C25.8445 10.1719 25.6527 10.0923 25.4655 10.0028C25.1102 9.83201 24.7728 9.6262 24.4583 9.3884C22.6693 8.03097 21.5582 5.44184 22.7256 3.33301" fill="#0868AC"/>
<path d="M21.1765 28.8175H20.0388C20.0066 28.8189 19.9758 28.8305 19.9507 28.8507C19.9257 28.8709 19.9078 28.8986 19.8996 28.9297L19.4957 30.7981L19.0919 32.6666C19.084 32.6978 19.0662 32.7256 19.0411 32.7458C19.0161 32.766 18.9852 32.7776 18.953 32.7788H18.1477C17.3511 32.7788 17.4432 32.2277 17.6063 31.4728L17.6112 31.4499L17.6289 31.3546L17.6322 31.3369L17.6685 31.143L17.7076 30.9354L17.749 30.7241L17.9326 29.8271L18.1165 28.93C18.12 28.9163 18.1203 28.902 18.1172 28.8881C18.1142 28.8743 18.108 28.8614 18.099 28.8505C18.0901 28.8395 18.0787 28.8308 18.0658 28.825C18.0529 28.8192 18.0388 28.8165 18.0247 28.8172H16.8571C16.8249 28.8184 16.794 28.83 16.769 28.8503C16.7441 28.8706 16.7264 28.8985 16.7187 28.9297L16.4675 30.1208L16.2166 31.3121L16.216 31.3137L16.1929 31.4246C15.9037 32.7446 15.9802 34.0038 17.5519 34.0434L17.5977 34.0442H20.0646C20.0968 34.043 20.1277 34.0314 20.1527 34.0111C20.1778 33.9909 20.1956 33.9631 20.2035 33.9319L20.7355 31.4311L21.2675 28.93C21.2807 28.8681 21.2398 28.8177 21.1765 28.8175ZM8.99247 28.8043H7.74327C7.71097 28.8054 7.6799 28.817 7.65465 28.8371C7.6294 28.8573 7.61129 28.885 7.603 28.9163L7.48454 29.4391L7.36608 29.9619C7.35235 30.0236 7.39247 30.0739 7.45573 30.0739H8.71463C8.74682 30.0726 8.77773 30.0609 8.80283 30.0407C8.82792 30.0205 8.84589 29.9928 8.85409 29.9617L8.96851 29.4391L9.08293 28.9165C9.09612 28.8549 9.05574 28.8043 8.99247 28.8043ZM8.63009 30.4315H7.37093C7.33863 30.4326 7.30757 30.4441 7.28231 30.4643C7.25706 30.4845 7.23895 30.5122 7.23066 30.5435L7.05378 31.3269L6.87717 32.1101L6.8279 32.3346L6.65802 33.1342L6.48841 33.9341C6.47522 33.9957 6.44802 34.0953 6.42783 34.1551C6.42783 34.1551 6.19253 34.8551 5.79704 34.847L5.7475 34.8459L5.40532 34.8397C5.37319 34.8406 5.34191 34.8517 5.31653 34.8714C5.29116 34.8911 5.27274 34.9184 5.26397 34.9493L5.1334 35.4983L5.00309 36.0469C4.98829 36.1083 5.02813 36.1589 5.09086 36.16C5.31512 36.1627 5.8175 36.1684 6.12145 36.1684C7.10924 36.1684 7.63019 35.621 7.96376 34.0461L8.35441 32.2385L8.72082 30.5432C8.73401 30.4821 8.69309 30.4315 8.63009 30.4315ZM31.815 30.0077L31.7627 29.7921L31.7113 29.5713L31.6852 29.4598C31.5829 29.0622 31.2827 28.8331 30.6306 28.8331L29.6157 28.832L28.6809 28.8307H27.629C27.5969 28.8318 27.5659 28.8433 27.5409 28.8636C27.5159 28.8838 27.4982 28.9117 27.4904 28.9429L27.4438 29.1626L27.3889 29.4221L27.3735 29.4951L26.9 31.7135L26.4504 33.8194C26.4369 33.8813 26.4326 33.9572 26.4401 33.9879C26.4477 34.0189 26.5691 34.0442 26.6321 34.0442H27.5808C27.6441 34.0442 27.7241 34.0329 27.7585 34.0189C27.793 34.0049 27.8439 33.8808 27.8565 33.8191L28.0251 32.9848L28.1939 32.1502L28.1941 32.1488L28.2168 32.0377L28.4214 31.0792L28.602 30.2328C28.61 30.2016 28.6278 30.1739 28.6527 30.1537C28.6777 30.1335 28.7086 30.1218 28.7407 30.1205L31.7261 30.1192C31.7894 30.1197 31.8292 30.0694 31.815 30.0077ZM35.6581 28.0585L35.4282 28.0593H34.4727C34.4377 28.0612 34.4035 28.0707 34.3725 28.0871C34.3415 28.1035 34.3144 28.1265 34.2932 28.1544L32.18 31.2499C32.1445 31.3021 32.1038 31.2946 32.0898 31.2332L31.9342 30.5513C31.9259 30.52 31.9078 30.4922 31.8825 30.472C31.8572 30.4519 31.826 30.4404 31.7937 30.4393H30.4354C30.3722 30.4393 30.3348 30.4888 30.352 30.5494L30.9607 32.6819C30.9779 32.7427 30.9793 32.8424 30.9637 32.9037L30.6985 33.9357C30.6826 33.9971 30.7214 34.0469 30.7846 34.0469H32.1273C32.1597 34.0456 32.191 34.0341 32.2167 34.0142C32.2423 33.9943 32.2611 33.9668 32.2705 33.9357L32.5359 32.9037C32.5568 32.831 32.5899 32.7623 32.6337 32.7005L36.0641 28.1476C36.1024 28.097 36.0816 28.0558 36.0186 28.0564L35.6581 28.0585ZM24.866 30.729V30.7279C24.8613 30.7604 24.8452 30.7902 24.8206 30.8119C24.796 30.8337 24.7645 30.846 24.7316 30.8466H23.0094C22.9496 30.8466 22.9195 30.8062 22.9284 30.7561L22.93 30.7521L22.9289 30.7526L22.9297 30.747L22.9375 30.7176C23.102 30.2804 23.4369 29.9934 24.0667 29.9934C24.7758 29.9932 24.9142 30.3394 24.866 30.729ZM24.3606 28.741C22.15 28.741 21.6261 30.0828 21.3321 31.4373C21.0384 32.8179 21.0634 34.1083 23.3513 34.1083H23.6286L23.6975 34.108H23.7137L23.9883 34.1072H23.9932C24.5973 34.1048 25.2033 34.1002 25.4486 34.0983C25.4806 34.0968 25.5112 34.085 25.5359 34.0646C25.5607 34.0442 25.5781 34.0164 25.5856 33.9852L25.6782 33.5327L25.6963 33.4446L25.8067 32.9046C25.8102 32.8909 25.8104 32.8765 25.8074 32.8627C25.8044 32.8489 25.7981 32.836 25.7892 32.8251C25.7803 32.8141 25.7689 32.8054 25.756 32.7997C25.743 32.7939 25.729 32.7913 25.7148 32.792H23.6582C22.8401 32.792 22.5972 32.5748 22.6869 31.9356H25.9744L25.9741 31.9359L25.9763 31.9356C26.0023 31.9346 26.0275 31.926 26.0487 31.911C26.07 31.8959 26.0865 31.875 26.0961 31.8508L26.1039 31.8223L26.1036 31.8225C26.5917 29.9813 26.4517 28.7413 24.3606 28.741ZM13.912 30.722L13.8808 30.8321L13.6326 31.7122L13.3843 32.5917C13.3741 32.6228 13.3546 32.65 13.3285 32.6698C13.3024 32.6896 13.2709 32.7009 13.2382 32.7024H11.9243C10.9277 32.7024 10.6848 31.9227 10.9277 30.7731C11.1702 29.5971 11.646 28.8662 12.627 28.7922C13.9678 28.6909 14.2359 29.6337 13.912 30.722ZM14.8134 32.6348C14.8134 32.6348 15.4329 31.1304 15.5734 30.2618C15.7654 29.0991 15.183 27.4121 12.9339 27.4121C10.6977 27.4121 9.72638 29.0223 9.35592 30.7731C8.98547 32.5365 9.47088 34.0827 11.6944 34.07L13.4487 34.0636L15.088 34.0576C15.1205 34.056 15.1517 34.0445 15.1774 34.0245C15.2031 34.0046 15.2221 33.9772 15.2318 33.9462L15.5174 32.8569C15.5333 32.7955 15.4948 32.7454 15.4315 32.7449L15.1577 32.7433L14.8839 32.7417C14.8303 32.7414 14.7997 32.7064 14.8061 32.6604L14.8134 32.6348ZM25.8839 31.6276C25.8839 31.6375 25.882 31.6473 25.8782 31.6565C25.8745 31.6656 25.8689 31.674 25.8619 31.681C25.8549 31.688 25.8466 31.6935 25.8375 31.6974C25.8284 31.7012 25.8186 31.7031 25.8087 31.7031C25.7988 31.7032 25.789 31.7012 25.7798 31.6975C25.7707 31.6937 25.7623 31.6881 25.7553 31.6812C25.7483 31.6742 25.7427 31.6659 25.7389 31.6567C25.7351 31.6476 25.7332 31.6378 25.7332 31.6279C25.7331 31.6079 25.741 31.5887 25.7551 31.5745C25.7693 31.5604 25.7884 31.5524 25.8084 31.5524C25.8284 31.5523 25.8476 31.5602 25.8617 31.5744C25.8759 31.5885 25.8839 31.6076 25.8839 31.6276Z" fill="#131B28"/>
</svg>
