<svg width="40" height="40" viewBox="0 0 40 40" fill="none" xmlns="http://www.w3.org/2000/svg">
<g clip-path="url(#clip0_109_301)">
<path d="M0 10C0 4.47715 4.47715 0 10 0H30C35.5228 0 40 4.47715 40 10V30C40 35.5228 35.5228 40 30 40H10C4.47715 40 0 35.5228 0 30V10Z" fill="#F5DE19"/>
<path d="M25.188 31.598C25.5042 32.239 25.9949 32.7777 26.6036 33.1523C27.2124 33.5269 27.9144 33.7222 28.6292 33.7156C30.0718 33.7156 30.9943 32.9943 30.9943 31.995C30.9943 30.8039 30.0467 30.3777 28.4584 29.6828L27.5875 29.3096C25.0728 28.2389 23.4052 26.8981 23.4052 24.0631C23.4052 21.4518 25.3905 19.4625 28.5048 19.4625C29.5129 19.3899 30.5201 19.6156 31.4008 20.1115C32.2815 20.6074 32.9967 21.3516 33.4574 22.2512L30.7349 23.9916C30.5574 23.5456 30.2486 23.164 29.8494 22.8974C29.4502 22.6308 28.9794 22.4918 28.4995 22.4987C28.29 22.4777 28.0785 22.5006 27.8784 22.5659C27.6783 22.6312 27.494 22.7375 27.3373 22.8779C27.1805 23.0184 27.0547 23.1899 26.9679 23.3817C26.8811 23.5734 26.8352 23.7812 26.8331 23.9916C26.8331 25.0359 27.4803 25.4594 28.9746 26.1093L29.8455 26.4825C32.8049 27.7518 34.4778 29.0449 34.4778 31.9527C34.4778 35.0881 32.0147 36.8061 28.7073 36.8061C27.4187 36.8873 26.1341 36.5944 25.0081 35.9625C23.8821 35.3306 22.9629 34.3867 22.3609 33.2444L25.188 31.598ZM12.8858 31.8997C13.4324 32.8699 13.93 33.6905 15.1265 33.6905C16.27 33.6905 16.9927 33.2431 16.9927 31.5027V19.6611H20.4749V31.549C20.4749 35.1543 18.3573 36.7955 15.2748 36.7955C14.1852 36.855 13.103 36.5835 12.1707 36.0165C11.2383 35.4496 10.4993 34.6138 10.0508 33.619L12.8858 31.8997Z" fill="black"/>
</g>
<defs>
<clipPath id="clip0_109_301">
<rect width="40" height="40" rx="4" fill="white"/>
</clipPath>
</defs>
</svg>
