<svg width="40" height="40" viewBox="0 0 40 40" fill="none" xmlns="http://www.w3.org/2000/svg">
<rect width="40" height="40" rx="10" fill="#4166DA"/>
<path d="M32.2293 6.66699H19.3916C19.3916 9.86746 21.9824 12.4578 25.1813 12.4578H27.5434V14.7435C27.5434 17.944 30.1339 20.5346 33.3342 20.5346V7.77172C33.3339 7.47877 33.2174 7.19791 33.0103 6.99079C32.8031 6.78367 32.5222 6.66722 32.2293 6.66699Z" fill="white"/>
<path d="M25.8645 13.0684H13.0269C13.0269 16.2688 15.6163 18.8586 18.8166 18.8586H21.1783V21.1449C21.1783 24.3453 23.7689 26.9363 26.9692 26.9363V14.1734C26.969 13.8804 26.8525 13.5995 26.6454 13.3924C26.4383 13.1852 26.1575 13.0687 25.8645 13.0684Z" fill="white"/>
<path d="M19.5053 19.4658H6.6665C6.6665 22.6663 9.25707 25.257 12.4571 25.257H14.8194V27.5435C14.8194 30.7428 17.4097 33.3335 20.61 33.3335V20.5708C20.6098 20.2779 20.4933 19.997 20.2862 19.7898C20.0791 19.5826 19.7983 19.4661 19.5053 19.4658Z" fill="white"/>
</svg>
