<svg width="40" height="40" viewBox="0 0 40 40" fill="none" xmlns="http://www.w3.org/2000/svg">
<rect width="40" height="40" rx="10" fill="white"/>
<path d="M23.9473 6.06591L7.76006 7.25099C6.45445 7.36321 6 8.20902 6 9.22301V26.8143C6 27.604 6.28273 28.2797 6.96534 29.1826L10.7704 34.0874C11.3955 34.8771 11.9639 35.0463 13.1575 34.9902L31.9551 33.8622C33.5446 33.7499 34 33.0163 34 31.7761V11.9858C34 11.3449 33.7445 11.1602 32.9927 10.6131L32.863 10.5203L27.6967 6.91173C26.4466 6.01084 25.9358 5.89677 23.9473 6.06591ZM13.5826 11.6619C12.0478 11.7644 11.6996 11.7876 10.8279 11.0848L8.61144 9.33707C8.38612 9.1109 8.49922 8.82856 9.06677 8.7725L24.628 7.64544C25.9347 7.53235 26.6153 7.98372 27.1263 8.37817L29.7952 10.2951C29.9093 10.352 30.1931 10.6894 29.8517 10.6894L13.7816 11.6483L13.5826 11.6619ZM11.7933 31.6069V14.8064C11.7933 14.0727 12.0204 13.7344 12.7011 13.6774L31.1584 12.6063C31.7845 12.5502 32.0673 12.9446 32.0673 13.6774V30.3657C32.0673 31.0994 31.9532 31.7199 30.9313 31.7761L13.2686 32.791C12.2467 32.8471 11.7933 32.5098 11.7933 31.6069ZM29.2287 15.7072C29.3418 16.2147 29.2287 16.7223 28.7167 16.7803L27.8655 16.9475V29.3516C27.1263 29.7459 26.4457 29.9712 25.877 29.9712C24.9684 29.9712 24.7411 29.6889 24.0604 28.8441L18.4935 20.1616V28.5618L20.2544 28.9572C20.2544 28.9572 20.2544 29.9722 18.8337 29.9722L14.9166 30.1974C14.8025 29.9712 14.9166 29.4077 15.3136 29.2955L16.3364 29.0142V17.9074L14.9167 17.7934C14.8025 17.286 15.0862 16.5531 15.882 16.4961L20.0849 16.2158L25.8772 25.0104V17.2299L24.4008 17.0616C24.2867 16.44 24.7411 15.9887 25.3086 15.9336L29.2287 15.7072Z" fill="black"/>
</svg>
