<svg width="40" height="40" viewBox="0 0 40 40" fill="none" xmlns="http://www.w3.org/2000/svg">
<rect width="40" height="40" rx="10" fill="white"/>
<path d="M20.071 22.7856C21.624 22.7856 22.8827 21.5266 22.8827 19.9738C22.8827 18.421 21.624 17.1621 20.071 17.1621C18.518 17.1621 17.2593 18.421 17.2593 19.9738C17.2593 21.5266 18.5182 22.7856 20.071 22.7856Z" fill="#00D8FF"/>
<path d="M20.0717 14.2568C23.8468 14.2568 27.3537 14.7985 29.998 15.709C33.184 16.8057 35.1428 18.4682 35.1428 19.9737C35.1428 21.5425 33.0669 23.3087 29.6455 24.4422C27.059 25.2992 23.6552 25.7465 20.0717 25.7465C16.3976 25.7465 12.9184 25.3266 10.3026 24.4327C6.99319 23.3016 5 21.5127 5 19.9737C5 18.4804 6.87036 16.8307 10.0115 15.7356C12.6656 14.8103 16.2591 14.2568 20.0711 14.2568H20.0717Z" stroke="#00D8FF" stroke-width="1.25311"/>
<path d="M15.0948 17.1323C16.9808 13.8621 19.2019 11.0947 21.3116 9.25897C23.8532 7.04694 26.2722 6.18064 27.5761 6.93255C28.9351 7.71626 29.4281 10.3972 28.7009 13.9272C28.1516 16.5959 26.8382 19.7678 25.0479 22.8722C23.2124 26.055 21.1107 28.8592 19.0298 30.678C16.3966 32.9797 13.8509 33.8127 12.5179 33.0439C11.2243 32.2985 10.7296 29.8537 11.3503 26.5855C11.8746 23.824 13.1905 20.4346 15.0942 17.1323H15.0948Z" stroke="#00D8FF" stroke-width="1.25311"/>
<path d="M15.0994 22.8793C13.2081 19.6127 11.9204 16.3057 11.3829 13.5612C10.7359 10.2544 11.1933 7.72619 12.4963 6.97201C13.8541 6.18589 16.4227 7.09771 19.1177 9.49074C21.1554 11.2999 23.2478 14.0214 25.0432 17.1228C26.884 20.3025 28.2637 23.524 28.8004 26.2351C29.4795 29.6659 28.9298 32.2873 27.598 33.0582C26.3057 33.8063 23.9409 33.0143 21.4193 30.8444C19.2888 29.0111 17.0094 26.1784 15.0994 22.8793Z" stroke="#00D8FF" stroke-width="1.25311"/>
</svg>
