<svg width="40" height="40" viewBox="0 0 40 40" fill="none" xmlns="http://www.w3.org/2000/svg">
<rect width="40" height="40" rx="10" fill="#CD6799"/>
<mask id="mask0_109_1065" style="mask-type:luminance" maskUnits="userSpaceOnUse" x="4" y="8" width="32" height="24">
<path d="M4.375 8.28125H35.625V31.7045H4.375V8.28125Z" fill="white"/>
</mask>
<g mask="url(#mask0_109_1065)">
<path d="M31.2672 21.7448C30.1775 21.7504 29.2306 22.0129 28.4377 22.4007C28.1467 21.8246 27.8558 21.3112 27.8044 20.9346C27.7473 20.4954 27.6789 20.2273 27.7473 19.7024C27.8158 19.1776 28.1239 18.4304 28.1181 18.3734C28.1123 18.3163 28.0497 18.0482 27.4222 18.0424C26.7947 18.0367 26.2528 18.1623 26.19 18.3277C26.1272 18.4931 26.0075 18.8696 25.9277 19.2576C25.8192 19.8281 24.6725 21.8646 24.0166 22.9313C23.8055 22.5149 23.623 22.1498 23.583 21.8588C23.5259 21.4196 23.4575 21.1515 23.5259 20.6267C23.5944 20.1018 23.9025 19.3545 23.8967 19.2974C23.8909 19.2404 23.8283 18.9723 23.2008 18.9667C22.5733 18.961 22.0312 19.0863 21.9686 19.2518C21.9058 19.4173 21.8373 19.8052 21.7061 20.1817C21.575 20.5582 20.0519 23.9582 19.6525 24.8367C19.4911 25.1922 19.3219 25.544 19.1448 25.892C19.1448 25.892 19.1391 25.9091 19.122 25.9376C19.0663 26.0467 19.0093 26.1551 18.9508 26.2627V26.2685C18.8653 26.4226 18.7739 26.5651 18.7283 26.5651C18.6941 26.5651 18.6314 26.1545 18.7397 25.5954C18.968 24.4145 19.5098 22.5776 19.5042 22.5149C19.5042 22.4807 19.6069 22.1612 19.1505 21.9957C18.7055 21.8302 18.5458 22.1041 18.5058 22.1041C18.4659 22.1041 18.4373 22.2012 18.4373 22.2012C18.4373 22.2012 18.9337 20.136 17.4905 20.136C16.5891 20.136 15.3455 21.1229 14.7295 22.0129C14.0291 22.394 13.3293 22.7762 12.63 23.1595C12.2936 23.3477 11.9456 23.536 11.6203 23.7129C11.5975 23.6901 11.5747 23.6615 11.5519 23.6387C9.80625 21.7732 6.5775 20.4556 6.71437 17.9512C6.76578 17.0384 7.07953 14.6424 12.9153 11.7331C17.7186 9.36571 21.5408 10.0217 22.2025 11.4763C23.1494 13.5529 20.1545 17.4092 15.1916 17.9682C13.2975 18.1793 12.305 17.4492 12.0541 17.1754C11.7916 16.8901 11.7516 16.8731 11.6545 16.9301C11.4948 17.0156 11.5975 17.2723 11.6545 17.4206C11.803 17.8085 12.4133 18.4931 13.4458 18.8296C14.3586 19.1263 16.5777 19.2918 19.2645 18.2535C22.2709 17.0898 24.6212 13.8551 23.9309 11.1456C23.2408 8.39587 18.677 7.48884 14.3586 9.02337C11.7914 9.93618 9.00765 11.3737 7.00531 13.2448C4.6264 15.4698 4.25 17.4035 4.40406 18.2135C4.95734 21.0887 8.92203 22.9598 10.508 24.346C10.4281 24.3917 10.3539 24.4317 10.2912 24.4659C9.49828 24.8595 6.47484 26.4396 5.72171 28.1112C4.86609 30.0051 5.85875 31.3627 6.51468 31.5452C8.55125 32.1101 10.6448 31.0946 11.7687 29.4174C12.8927 27.7402 12.7556 25.5612 12.2364 24.5629C12.2307 24.5503 12.223 24.5387 12.2136 24.5287C12.4191 24.4088 12.63 24.2834 12.8355 24.1635C13.213 23.9404 13.5953 23.7255 13.982 23.5188C13.7881 24.0495 13.6455 24.6826 13.577 25.5954C13.4916 26.6679 13.9308 28.0598 14.5069 28.6074C14.7636 28.847 15.0659 28.8527 15.26 28.8527C15.9331 28.8527 16.2355 28.2937 16.572 27.632C16.9827 26.8218 17.3536 25.8806 17.3536 25.8806C17.3536 25.8806 16.8914 28.4249 18.1464 28.4249C18.6028 28.4249 19.0648 27.8317 19.2703 27.5293V27.5349C19.2703 27.5349 19.2817 27.5179 19.3045 27.4779C19.3502 27.4037 19.3786 27.3581 19.3786 27.3581V27.3466C19.5612 27.0273 19.9719 26.3027 20.5823 25.099C21.3695 23.5474 22.1283 21.6079 22.1283 21.6079C22.1283 21.6079 22.1967 22.0813 22.4306 22.8685C22.5675 23.3307 22.8528 23.8384 23.0809 24.329C22.8984 24.5857 22.7844 24.7282 22.7844 24.7282L22.79 24.734C22.6417 24.9279 22.482 25.139 22.3052 25.3443C21.6833 26.086 20.9417 26.936 20.8391 27.1813C20.7192 27.4723 20.7478 27.6832 20.9759 27.8545C21.1414 27.9799 21.438 27.997 21.7403 27.9799C22.2994 27.9399 22.6931 27.8031 22.887 27.7174C23.1894 27.6091 23.5431 27.4437 23.8739 27.1984C24.4844 26.7477 24.8552 26.1031 24.8209 25.2531C24.8037 24.7852 24.6497 24.3176 24.4616 23.8782C24.5186 23.7984 24.5698 23.7185 24.6269 23.6387C25.5911 22.2296 26.3383 20.6837 26.3383 20.6837C26.3383 20.6837 26.4067 21.1571 26.6406 21.9445C26.7547 22.3437 26.9886 22.7773 27.1941 23.1995C26.287 23.9354 25.728 24.791 25.5283 25.3501C25.1689 26.3884 25.4484 26.856 25.9789 26.9645C26.2186 27.0159 26.5608 26.9018 26.8119 26.7934C27.1312 26.6907 27.5078 26.5138 27.8672 26.2513C28.4775 25.8007 29.0652 25.1732 29.0309 24.3232C29.0137 23.9354 28.9111 23.5531 28.7684 23.1823C29.5386 22.8629 30.5312 22.686 31.7977 22.8343C34.5131 23.1538 35.0494 24.8481 34.9466 25.5612C34.8439 26.2741 34.2734 26.6621 34.0852 26.782C33.897 26.9018 33.8342 26.9416 33.8514 27.0273C33.8742 27.1527 33.9655 27.147 34.1252 27.1242C34.3477 27.0843 35.5512 26.5481 35.6027 25.236C35.6883 23.5588 34.0909 21.7276 31.2672 21.7448ZM10.3197 28.8071C9.41843 29.7882 8.16343 30.1592 7.6214 29.8454C7.03953 29.5087 7.26765 28.0598 8.37453 27.0215C9.0475 26.3884 9.91468 25.8007 10.4908 25.4413C10.622 25.3615 10.8159 25.2474 11.0498 25.1048C11.0898 25.082 11.1127 25.0706 11.1127 25.0706L11.2495 24.9849C11.6545 26.4682 11.2666 27.7746 10.3197 28.8071ZM16.8802 24.346C16.5664 25.1106 15.9105 27.0671 15.5111 26.9588C15.1689 26.8674 14.9578 25.3843 15.4427 23.9182C15.688 23.1823 16.207 22.3038 16.5094 21.9615C17 21.4138 17.5419 21.2313 17.6731 21.4538C17.8386 21.7448 17.0742 23.8668 16.8802 24.346ZM22.2939 26.936C22.1627 27.0045 22.0372 27.0501 21.9802 27.0159C21.9402 26.9931 22.0372 26.9018 22.0372 26.9018C22.0372 26.9018 22.7161 26.1715 22.9842 25.8407C23.1381 25.6467 23.3208 25.4185 23.5147 25.1618V25.236C23.5147 26.1088 22.6705 26.6963 22.2939 26.936ZM26.4697 25.9832C26.3727 25.9148 26.3898 25.6866 26.715 24.9735C26.8405 24.694 27.1372 24.2263 27.6448 23.7756C27.7019 23.9582 27.7419 24.1349 27.7361 24.3004C27.7305 25.4015 26.9431 25.8121 26.4697 25.9832Z" fill="white"/>
</g>
</svg>
