<svg width="40" height="40" viewBox="0 0 40 40" fill="none" xmlns="http://www.w3.org/2000/svg">
<rect width="40" height="40" rx="10" fill="white"/>
<path d="M12.2915 23.5234C12.2915 25.0734 11.0398 26.3263 9.49097 26.3263C7.94216 26.3263 6.69043 25.0734 6.69043 23.5234C6.69043 21.9734 7.94216 20.7207 9.49107 20.7207H12.2914L12.2915 23.5234ZM13.6918 23.5234C13.6918 21.9734 14.9435 20.7207 16.4924 20.7207C18.0412 20.7207 19.2929 21.9734 19.2929 23.5235V30.5304C19.2929 32.0804 18.0412 33.3333 16.4923 33.3333C14.9437 33.3333 13.6918 32.0804 13.6918 30.5304V23.5234Z" fill="#E01E5A"/>
<path d="M16.4896 12.2726C14.9408 12.2726 13.689 11.0198 13.689 9.46977C13.689 7.91972 14.9409 6.66699 16.4896 6.66699C18.0383 6.66699 19.2902 7.91972 19.2902 9.46977V12.2727L16.4896 12.2726ZM16.4896 13.6952C18.0384 13.6952 19.2902 14.9479 19.2902 16.498C19.2902 18.048 18.0384 19.3008 16.4895 19.3008H9.46714C7.91823 19.3008 6.6665 18.048 6.6665 16.4979C6.6665 14.948 7.91823 13.6952 9.46704 13.6952H16.4896Z" fill="#36C5F0"/>
<path d="M27.7114 16.498C27.7114 14.9479 28.9631 13.6951 30.5118 13.6951C32.0605 13.6951 33.3124 14.9479 33.3124 16.498C33.3124 18.048 32.0606 19.3008 30.5118 19.3008H27.7114V16.498ZM26.311 16.498C26.311 18.048 25.0592 19.3008 23.5104 19.3008C21.9617 19.3008 20.71 18.048 20.71 16.4979V9.46988C20.71 7.91972 21.9617 6.66699 23.5104 6.66699C25.0591 6.66699 26.3109 7.91972 26.3109 9.46977L26.311 16.498Z" fill="#2EB67D"/>
<path d="M23.5099 27.7277C25.0587 27.7277 26.3105 28.9804 26.3105 30.5304C26.3105 32.0803 25.0587 33.3333 23.5099 33.3333C21.9612 33.3333 20.7095 32.0804 20.7095 30.5304V27.7277H23.5099ZM23.5099 26.3263C21.9612 26.3263 20.7095 25.0734 20.7095 23.5234C20.7095 21.9734 21.9612 20.7207 23.51 20.7207H30.5325C32.0813 20.7207 33.3331 21.9734 33.3331 23.5235C33.3331 25.0735 32.0813 26.3263 30.5325 26.3263H23.5099Z" fill="#ECB22E"/>
</svg>
